<svg width="972" height="586" viewBox="0 0 972 586" fill="none" xmlns="http://www.w3.org/2000/svg">
<rect x="93.7144" y="0.793152" width="784.345" height="584.414" rx="35.1527" fill="white"/>
<g clip-path="url(#clip0_1_105)">
<path d="M157.425 84.2781C168.343 84.2781 177.194 75.4269 177.194 64.5085C177.194 53.59 168.343 44.7389 157.425 44.7389C146.506 44.7389 137.655 53.59 137.655 64.5085C137.655 75.4269 146.506 84.2781 157.425 84.2781Z" fill="#DD552D"/>
<path d="M157.435 44.7365C156.979 44.7365 156.526 44.7533 156.077 44.7837C166.364 45.4818 174.492 54.0456 174.492 64.509C174.492 74.9725 166.364 83.5363 156.077 84.2344C156.526 84.2648 156.979 84.2817 157.435 84.2817C168.355 84.2817 177.208 75.4292 177.208 64.5091C177.208 53.589 168.355 44.7365 157.435 44.7365V44.7365Z" fill="#CF462A"/>
<path d="M168.312 68.3115H146.546C145.678 68.3115 144.974 67.6074 144.974 66.7389V62.2784C144.974 61.4099 145.678 60.7058 146.546 60.7058H168.312C169.181 60.7058 169.885 61.4099 169.885 62.2784V66.7389C169.885 67.6074 169.18 68.3115 168.312 68.3115V68.3115Z" fill="#F7F7F7"/>
<path d="M168.313 60.7058H165.597C166.465 60.7058 167.169 61.4099 167.169 62.2784V66.7389C167.169 67.6075 166.465 68.3115 165.597 68.3115H168.313C169.182 68.3115 169.886 67.6074 169.886 66.7389V62.2784C169.886 61.4099 169.182 60.7058 168.313 60.7058V60.7058Z" fill="#E8E8E8"/>
</g>
<path d="M196.686 75.0074H204.601C206.763 75.0074 208.611 74.5768 210.143 73.7158C211.685 72.8547 212.861 71.6131 213.672 69.9911C214.493 68.359 214.904 66.4016 214.904 64.1187V64.0887C214.904 61.8058 214.493 59.8634 213.672 58.2614C212.851 56.6593 211.675 55.4378 210.143 54.5968C208.611 53.7557 206.763 53.3352 204.601 53.3352H196.686V75.0074ZM200.561 71.7483V56.5943H204.195C205.637 56.5943 206.858 56.8846 207.86 57.4654C208.871 58.0361 209.637 58.8821 210.158 60.0035C210.688 61.125 210.954 62.4917 210.954 64.1037V64.1337C210.954 65.7858 210.693 67.1776 210.173 68.309C209.652 69.4304 208.891 70.2865 207.89 70.8772C206.889 71.4579 205.657 71.7483 204.195 71.7483H200.561ZM222.248 75.2777C222.949 75.2777 223.605 75.1676 224.215 74.9473C224.836 74.727 225.387 74.4116 225.867 74.0011C226.348 73.5906 226.738 73.11 227.039 72.5593H227.129V75.0074H230.854V64.0586C230.854 62.9873 230.583 62.0561 230.043 61.2651C229.512 60.4741 228.756 59.8584 227.775 59.4178C226.804 58.9773 225.652 58.757 224.32 58.757C222.979 58.757 221.817 58.9723 220.836 59.4028C219.865 59.8333 219.104 60.4241 218.553 61.175C218.002 61.9159 217.687 62.757 217.607 63.6982L217.592 63.8784H221.046L221.076 63.7432C221.207 63.1525 221.537 62.6719 222.068 62.3014C222.598 61.921 223.304 61.7307 224.185 61.7307C225.136 61.7307 225.862 61.966 226.363 62.4366C226.874 62.8972 227.129 63.528 227.129 64.329V69.105C227.129 69.7358 226.964 70.3015 226.633 70.8021C226.303 71.3027 225.852 71.6982 225.282 71.9886C224.721 72.279 224.08 72.4241 223.359 72.4241C222.538 72.4241 221.877 72.2389 221.377 71.8684C220.886 71.488 220.641 70.9723 220.641 70.3215V70.3065C220.641 69.6757 220.886 69.1701 221.377 68.7896C221.867 68.4091 222.573 68.1888 223.494 68.1287L229.051 67.7833V65.3052L222.969 65.6807C221.046 65.7908 219.554 66.2614 218.493 67.0924C217.442 67.9135 216.916 69.0299 216.916 70.4417V70.4717C216.916 71.4129 217.136 72.2489 217.577 72.9798C218.028 73.7007 218.653 74.2665 219.454 74.677C220.265 75.0775 221.196 75.2777 222.248 75.2777ZM233.887 75.0074H237.612V65.7708C237.612 64.9998 237.757 64.329 238.048 63.7583C238.338 63.1775 238.749 62.727 239.279 62.4066C239.81 62.0761 240.431 61.9109 241.142 61.9109C242.203 61.9109 242.999 62.2213 243.53 62.8421C244.06 63.4529 244.326 64.324 244.326 65.4554V75.0074H248.065V64.7044C248.065 62.8621 247.585 61.4103 246.623 60.349C245.672 59.2876 244.321 58.757 242.568 58.757C241.367 58.757 240.356 59.0123 239.535 59.5229C238.723 60.0336 238.113 60.7194 237.702 61.5805H237.612V59.0874H233.887V75.0074ZM258.248 80.5794C259.79 80.5794 261.122 80.3291 262.243 79.8284C263.364 79.3278 264.231 78.6219 264.841 77.7108C265.452 76.8096 265.757 75.7583 265.757 74.5568V59.0874H262.018V61.7908H261.928C261.627 61.18 261.237 60.6494 260.756 60.1988C260.286 59.7482 259.735 59.3978 259.104 59.1475C258.473 58.8871 257.782 58.757 257.031 58.757C255.69 58.757 254.523 59.0874 253.532 59.7482C252.541 60.4091 251.77 61.3452 251.219 62.5568C250.679 63.7583 250.408 65.2001 250.408 66.8822V66.8972C250.408 68.5493 250.674 69.9761 251.204 71.1776C251.745 72.3691 252.506 73.2902 253.487 73.941C254.478 74.5919 255.64 74.9173 256.971 74.9173C257.732 74.9173 258.433 74.8021 259.074 74.5718C259.725 74.3415 260.291 74.0211 260.771 73.6106C261.262 73.2001 261.652 72.7095 261.943 72.1388H262.018V74.4367C262.018 75.4479 261.692 76.254 261.042 76.8547C260.391 77.4555 259.455 77.7558 258.233 77.7558C257.272 77.7558 256.476 77.6006 255.845 77.2903C255.224 76.9899 254.814 76.6094 254.613 76.1488L254.553 76.0287H250.889L250.919 76.1638C251.069 76.9949 251.454 77.7458 252.075 78.4167C252.696 79.0875 253.527 79.6132 254.568 79.9936C255.62 80.3841 256.846 80.5794 258.248 80.5794ZM258.143 72.0337C257.342 72.0337 256.646 71.8284 256.055 71.4179C255.465 71.0074 255.009 70.4266 254.689 69.6757C254.368 68.9147 254.208 68.0136 254.208 66.9723V66.9573C254.208 65.916 254.368 65.0198 254.689 64.2689C255.009 63.518 255.465 62.9372 256.055 62.5267C256.646 62.1162 257.342 61.9109 258.143 61.9109C258.914 61.9109 259.59 62.1162 260.17 62.5267C260.751 62.9372 261.207 63.523 261.537 64.2839C261.868 65.0349 262.033 65.926 262.033 66.9573V66.9723C262.033 67.9936 261.868 68.8847 261.537 69.6457C261.217 70.4066 260.766 70.9974 260.185 71.4179C259.605 71.8284 258.924 72.0337 258.143 72.0337ZM275.82 75.3228C276.851 75.3228 277.773 75.1876 278.584 74.9173C279.395 74.6369 280.095 74.2614 280.686 73.7909C281.277 73.3203 281.748 72.7946 282.098 72.2139C282.448 71.6231 282.689 71.0224 282.819 70.4116L282.849 70.2464H279.365L279.334 70.3515C279.214 70.712 278.999 71.0474 278.689 71.3578C278.388 71.6682 278.003 71.9235 277.532 72.1238C277.062 72.314 276.516 72.4091 275.895 72.4091C275.064 72.4091 274.348 72.2289 273.747 71.8684C273.147 71.498 272.681 70.9723 272.351 70.2915C272.03 69.6006 271.87 68.7696 271.87 67.7983V66.3565C271.87 65.3553 272.03 64.5042 272.351 63.8033C272.681 63.1024 273.132 62.5768 273.702 62.2263C274.283 61.8659 274.944 61.6857 275.685 61.6857C276.416 61.6857 277.062 61.8609 277.622 62.2113C278.183 62.5517 278.624 63.0674 278.944 63.7583C279.264 64.4491 279.425 65.3152 279.425 66.3565V67.7983L281.227 65.4704H270.008V67.9635H283.014V66.762C283.014 65.16 282.714 63.7583 282.113 62.5568C281.522 61.3552 280.671 60.4241 279.56 59.7632C278.458 59.0924 277.152 58.757 275.64 58.757C274.118 58.757 272.796 59.1024 271.675 59.7933C270.563 60.4841 269.697 61.4554 269.077 62.7069C268.466 63.9485 268.16 65.4053 268.16 67.0774V67.0924C268.16 68.7746 268.466 70.2314 269.077 71.4629C269.687 72.6945 270.563 73.6457 271.705 74.3165C272.856 74.9874 274.228 75.3228 275.82 75.3228ZM285.402 75.0074H289.127V65.7708C289.127 64.9798 289.262 64.309 289.532 63.7583C289.803 63.2076 290.193 62.792 290.704 62.5117C291.214 62.2213 291.82 62.0761 292.521 62.0761C292.841 62.0761 293.137 62.0962 293.407 62.1362C293.688 62.1763 293.903 62.2263 294.053 62.2864V58.9072C293.913 58.8671 293.738 58.8321 293.527 58.802C293.317 58.772 293.097 58.757 292.866 58.757C291.945 58.757 291.164 59.0323 290.524 59.583C289.893 60.1237 289.457 60.8746 289.217 61.8358H289.127V59.0874H285.402V75.0074Z" fill="black"/>
<line opacity="0.1" x1="339.818" y1="63.4089" x2="815.443" y2="63.4089" stroke="#93A9C3" stroke-width="2.19704" stroke-linecap="round"/>
<rect opacity="0.2" x="137.655" y="128.222" width="114.246" height="61.5172" rx="8.78818" fill="#E64C3C"/>
<path d="M167.651 169.404H170.817V165.838H173.341V163.109H170.817V150.828H166.093L158.382 163.006V165.838H167.651V169.404ZM161.368 163.186V163.096L167.625 153.338H167.702V163.186H161.368ZM178.685 169.61C179.728 169.61 180.539 168.786 180.539 167.743C180.539 166.713 179.728 165.89 178.685 165.89C177.642 165.89 176.818 166.713 176.818 167.743C176.818 168.786 177.642 169.61 178.685 169.61ZM185.046 169.404H188.522L196.465 153.596V150.828H183.54V153.544H193.195V153.608L185.046 169.404ZM204.294 160.251C206.843 160.251 208.388 158.41 208.388 155.462V155.449C208.388 152.501 206.843 150.66 204.294 150.66C201.732 150.66 200.174 152.501 200.174 155.449V155.462C200.174 158.41 201.732 160.251 204.294 160.251ZM205.813 169.404L217.605 150.828H215.03L203.212 169.404H205.813ZM204.294 158.32C203.174 158.32 202.543 157.29 202.543 155.462V155.449C202.543 153.621 203.174 152.591 204.294 152.591C205.401 152.591 206.019 153.621 206.019 155.449V155.462C206.019 157.29 205.401 158.32 204.294 158.32ZM216.536 169.571C219.085 169.571 220.643 167.73 220.643 164.77V164.757C220.643 161.822 219.085 159.981 216.536 159.981C213.987 159.981 212.43 161.822 212.43 164.757V164.77C212.43 167.73 213.987 169.571 216.536 169.571ZM216.536 167.64C215.416 167.64 214.786 166.61 214.786 164.782V164.77C214.786 162.942 215.416 161.912 216.536 161.912C217.643 161.912 218.274 162.942 218.274 164.77V164.782C218.274 166.61 217.643 167.64 216.536 167.64Z" fill="#ED274B"/>
<path d="M275.623 169.404H282.189C284.042 169.404 285.622 169.039 286.926 168.31C288.239 167.572 289.243 166.507 289.938 165.117C290.642 163.718 290.994 162.04 290.994 160.084V160.058C290.994 158.101 290.642 156.436 289.938 155.063C289.235 153.69 288.226 152.643 286.913 151.922C285.609 151.193 284.034 150.828 282.189 150.828H275.623V169.404ZM278.52 166.907V153.325H281.918C283.223 153.325 284.33 153.587 285.24 154.111C286.149 154.625 286.84 155.389 287.312 156.402C287.793 157.406 288.033 158.633 288.033 160.084V160.109C288.033 161.568 287.797 162.804 287.325 163.817C286.853 164.83 286.162 165.598 285.253 166.121C284.343 166.645 283.231 166.907 281.918 166.907H278.52ZM297.444 169.649C298.044 169.649 298.606 169.554 299.13 169.365C299.662 169.168 300.138 168.893 300.559 168.541C300.979 168.181 301.318 167.76 301.576 167.28H301.653V169.404H304.447V160.058C304.447 159.148 304.224 158.359 303.777 157.689C303.34 157.011 302.717 156.488 301.911 156.119C301.104 155.75 300.143 155.565 299.027 155.565C297.92 155.565 296.963 155.745 296.156 156.106C295.358 156.466 294.727 156.956 294.264 157.573C293.809 158.191 293.543 158.891 293.466 159.672L293.453 159.813H296.092L296.118 159.698C296.238 159.157 296.538 158.719 297.019 158.384C297.508 158.041 298.152 157.87 298.95 157.87C299.817 157.87 300.482 158.084 300.945 158.513C301.417 158.934 301.653 159.517 301.653 160.264V164.332C301.653 164.915 301.499 165.443 301.19 165.915C300.889 166.379 300.477 166.744 299.954 167.01C299.439 167.276 298.855 167.409 298.203 167.409C297.456 167.409 296.856 167.237 296.401 166.894C295.946 166.55 295.719 166.078 295.719 165.478V165.452C295.719 164.877 295.942 164.418 296.388 164.074C296.843 163.723 297.491 163.521 298.332 163.469L303.082 163.173V161.217L297.971 161.513C296.367 161.607 295.122 162.002 294.238 162.697C293.354 163.392 292.912 164.336 292.912 165.529V165.555C292.912 166.362 293.101 167.074 293.479 167.692C293.865 168.31 294.397 168.79 295.075 169.134C295.753 169.477 296.542 169.649 297.444 169.649ZM307.24 169.404H310.034V161.32C310.034 160.642 310.154 160.067 310.394 159.595C310.634 159.114 310.973 158.749 311.411 158.5C311.857 158.243 312.381 158.114 312.982 158.114C313.256 158.114 313.505 158.131 313.728 158.166C313.96 158.191 314.136 158.226 314.256 158.269V155.681C314.153 155.655 314.012 155.63 313.831 155.604C313.66 155.578 313.475 155.565 313.278 155.565C312.488 155.565 311.814 155.797 311.257 156.26C310.707 156.715 310.325 157.342 310.111 158.14H310.034V155.836H307.24V169.404ZM316.2 169.404H319.006V150.763H316.2V169.404ZM324.761 169.404H328.018L321.787 161.126L319.959 163.096L324.761 169.404ZM318.53 164.988L320.976 162.543L321.439 162.478L327.786 155.836H324.503L319.071 161.603H318.517L318.53 164.988ZM335.304 169.404H337.943V155.72H339.282L336.269 151.343L343.633 169.404H345.757L353.134 151.343L350.108 155.72H351.447V169.404H354.086V150.828H350.739L344.74 165.645H344.65L338.651 150.828H335.304V169.404ZM360.909 169.649C361.51 169.649 362.072 169.554 362.595 169.365C363.127 169.168 363.604 168.893 364.024 168.541C364.445 168.181 364.784 167.76 365.041 167.28H365.119V169.404H367.912V160.058C367.912 159.148 367.689 158.359 367.243 157.689C366.805 157.011 366.183 156.488 365.376 156.119C364.569 155.75 363.608 155.565 362.492 155.565C361.385 155.565 360.428 155.745 359.622 156.106C358.824 156.466 358.193 156.956 357.729 157.573C357.274 158.191 357.008 158.891 356.931 159.672L356.918 159.813H359.557L359.583 159.698C359.703 159.157 360.004 158.719 360.484 158.384C360.973 158.041 361.617 157.87 362.415 157.87C363.282 157.87 363.947 158.084 364.411 158.513C364.883 158.934 365.119 159.517 365.119 160.264V164.332C365.119 164.915 364.964 165.443 364.655 165.915C364.355 166.379 363.943 166.744 363.419 167.01C362.904 167.276 362.321 167.409 361.669 167.409C360.922 167.409 360.321 167.237 359.866 166.894C359.411 166.55 359.184 166.078 359.184 165.478V165.452C359.184 164.877 359.407 164.418 359.853 164.074C360.308 163.723 360.956 163.521 361.797 163.469L366.548 163.173V161.217L361.437 161.513C359.832 161.607 358.588 162.002 357.704 162.697C356.82 163.392 356.378 164.336 356.378 165.529V165.555C356.378 166.362 356.566 167.074 356.944 167.692C357.33 168.31 357.862 168.79 358.54 169.134C359.218 169.477 360.008 169.649 360.909 169.649ZM370.706 169.404H373.499V161.32C373.499 160.642 373.619 160.067 373.86 159.595C374.1 159.114 374.439 158.749 374.877 158.5C375.323 158.243 375.846 158.114 376.447 158.114C376.722 158.114 376.971 158.131 377.194 158.166C377.425 158.191 377.601 158.226 377.722 158.269V155.681C377.619 155.655 377.477 155.63 377.297 155.604C377.125 155.578 376.941 155.565 376.743 155.565C375.954 155.565 375.28 155.797 374.722 156.26C374.173 156.715 373.791 157.342 373.576 158.14H373.499V155.836H370.706V169.404ZM379.665 169.404H382.472V150.763H379.665V169.404ZM388.226 169.404H391.483L385.252 161.126L383.424 163.096L388.226 169.404ZM381.995 164.988L384.441 162.543L384.905 162.478L391.251 155.836H387.969L382.536 161.603H381.983L381.995 164.988ZM398.113 169.674C398.937 169.674 399.683 169.563 400.353 169.34C401.022 169.116 401.606 168.812 402.104 168.426C402.601 168.031 403 167.589 403.301 167.1C403.61 166.61 403.82 166.104 403.932 165.581L403.957 165.439H401.293L401.267 165.542C401.155 165.877 400.958 166.186 400.675 166.469C400.4 166.744 400.052 166.967 399.632 167.138C399.211 167.301 398.722 167.383 398.164 167.383C397.418 167.383 396.765 167.22 396.208 166.894C395.658 166.559 395.234 166.078 394.933 165.452C394.641 164.825 394.495 164.074 394.495 163.199V162.118C394.495 161.191 394.646 160.41 394.946 159.775C395.246 159.14 395.658 158.659 396.182 158.333C396.714 158.007 397.31 157.844 397.971 157.844C398.641 157.844 399.229 158.003 399.735 158.32C400.25 158.629 400.653 159.101 400.945 159.736C401.237 160.363 401.383 161.156 401.383 162.118V163.186L402.747 161.358H393.092V163.328H404.112V162.375C404.112 161.019 403.863 159.831 403.365 158.809C402.867 157.779 402.159 156.981 401.241 156.415C400.323 155.848 399.229 155.565 397.958 155.565C396.688 155.565 395.585 155.861 394.65 156.453C393.714 157.037 392.989 157.861 392.474 158.925C391.959 159.989 391.702 161.229 391.702 162.646V162.658C391.702 164.083 391.955 165.323 392.461 166.379C392.976 167.426 393.714 168.237 394.676 168.812C395.637 169.387 396.783 169.674 398.113 169.674ZM411.141 169.661C411.424 169.661 411.69 169.649 411.939 169.623C412.196 169.597 412.407 169.571 412.57 169.546V167.383C412.467 167.391 412.351 167.404 412.222 167.422C412.093 167.43 411.952 167.434 411.797 167.434C411.205 167.434 410.759 167.306 410.458 167.048C410.158 166.791 410.008 166.314 410.008 165.619V158.05H412.57V155.836H410.008V152.308H407.137V155.836H405.18V158.05H407.137V165.825C407.137 167.173 407.467 168.151 408.128 168.76C408.789 169.361 409.793 169.661 411.141 169.661Z" fill="black"/>
<line opacity="0.1" x1="423.759" y1="158.805" x2="722.232" y2="158.805" stroke="#93A9C3" stroke-width="2.19704" stroke-linecap="round" stroke-dasharray="10.99 10.99"/>
<path d="M741.468 172.582H743.165V170.059C746.995 169.803 749.999 167.701 749.999 164.021V164.006C749.999 160.807 747.866 159.17 743.886 158.254L743.165 158.089V151.811C745.102 152.051 746.409 153.177 746.619 154.92L746.634 155.055H749.758L749.743 154.814C749.503 151.54 746.875 149.363 743.165 149.077V146.554H741.468V149.077C737.668 149.363 734.98 151.6 734.98 154.935V154.95C734.98 157.998 737.007 159.741 740.852 160.627L741.468 160.762V167.325C739.035 167.07 737.953 165.778 737.668 164.171L737.638 164.006H734.529L734.544 164.216C734.784 167.641 737.653 169.773 741.468 170.059V172.582ZM738.164 154.754V154.724C738.164 153.358 739.305 152.081 741.468 151.811V157.698C739.05 157.127 738.164 156.136 738.164 154.754ZM743.195 161.167C746.019 161.828 746.815 162.744 746.815 164.261V164.276C746.815 165.883 745.763 167.145 743.165 167.355V161.152L743.195 161.167ZM761.127 170.764C765.723 170.764 768.982 168.121 768.982 164.411V164.381C768.982 161.348 766.85 159.425 763.666 159.14V159.065C766.309 158.509 768.231 156.707 768.231 154.018V153.988C768.231 150.654 765.408 148.371 761.097 148.371C756.862 148.371 753.979 150.759 753.648 154.379L753.633 154.529H756.787L756.802 154.394C757.012 152.381 758.694 151.12 761.097 151.12C763.546 151.12 764.957 152.336 764.957 154.424V154.454C764.957 156.466 763.275 157.923 760.797 157.923H758.259V160.537H760.887C763.786 160.537 765.558 161.903 765.558 164.351V164.381C765.558 166.484 763.771 167.956 761.127 167.956C758.439 167.956 756.622 166.604 756.412 164.682L756.397 164.517H753.167L753.183 164.712C753.483 168.241 756.502 170.764 761.127 170.764ZM782.484 170.404H785.713V166.094H788.702V163.27H785.713V148.732H780.847L771.641 163.165V166.094H782.484V170.404ZM774.765 163.315V163.225L782.424 151.39H782.514V163.315H774.765ZM793.028 170.629C794.124 170.629 794.995 169.758 794.995 168.662C794.995 167.55 794.124 166.694 793.028 166.694C791.916 166.694 791.045 167.55 791.045 168.662C791.045 169.758 791.916 170.629 793.028 170.629ZM806.139 170.764C810.705 170.764 814.054 167.656 814.054 163.33V163.3C814.054 159.2 811.065 156.181 806.92 156.181C803.976 156.181 801.784 157.713 800.927 159.666H800.852C800.852 159.47 800.852 159.275 800.867 159.08C801.003 154.784 802.519 151.195 806.244 151.195C808.317 151.195 809.729 152.216 810.344 153.838L810.389 153.988H813.769L813.724 153.808C813.033 150.579 810.134 148.371 806.274 148.371C800.852 148.371 797.623 152.637 797.623 159.861V159.891C797.623 167.686 801.708 170.764 806.139 170.764ZM801.513 163.345V163.33C801.513 160.762 803.511 158.915 806.139 158.915C808.782 158.915 810.705 160.777 810.705 163.39V163.42C810.705 165.943 808.662 167.941 806.094 167.941C803.526 167.941 801.513 165.913 801.513 163.345ZM825.108 170.764C829.779 170.764 833.068 167.716 833.068 163.315V163.285C833.068 159.14 830.079 156.151 825.934 156.151C823.801 156.151 821.999 156.977 821.023 158.434H820.948L821.608 151.57H831.806V148.732H818.89L817.824 161.227H820.767C821.053 160.747 821.398 160.326 821.804 159.981C822.675 159.2 823.831 158.809 825.168 158.809C827.856 158.809 829.764 160.687 829.779 163.345V163.375C829.779 166.064 827.871 167.956 825.138 167.956C822.72 167.956 820.948 166.454 820.662 164.502L820.647 164.381H817.433L817.448 164.562C817.749 168.136 820.767 170.764 825.108 170.764Z" fill="black"/>
<path d="M167.651 257.286H170.817V253.72H173.341V250.991H170.817V238.71H166.093L158.382 250.888V253.72H167.651V257.286ZM161.368 251.068V250.978L167.625 241.22H167.702V251.068H161.368ZM178.685 257.492C179.728 257.492 180.539 256.668 180.539 255.625C180.539 254.595 179.728 253.771 178.685 253.771C177.642 253.771 176.818 254.595 176.818 255.625C176.818 256.668 177.642 257.492 178.685 257.492ZM185.046 257.286H188.522L196.465 241.477V238.71H183.54V241.426H193.195V241.49L185.046 257.286ZM204.294 248.133C206.843 248.133 208.388 246.292 208.388 243.344V243.331C208.388 240.383 206.843 238.542 204.294 238.542C201.732 238.542 200.174 240.383 200.174 243.331V243.344C200.174 246.292 201.732 248.133 204.294 248.133ZM205.813 257.286L217.605 238.71H215.03L203.212 257.286H205.813ZM204.294 246.202C203.174 246.202 202.543 245.172 202.543 243.344V243.331C202.543 241.503 203.174 240.473 204.294 240.473C205.401 240.473 206.019 241.503 206.019 243.331V243.344C206.019 245.172 205.401 246.202 204.294 246.202ZM216.536 257.453C219.085 257.453 220.643 255.612 220.643 252.651V252.639C220.643 249.703 219.085 247.863 216.536 247.863C213.987 247.863 212.43 249.703 212.43 252.639V252.651C212.43 255.612 213.987 257.453 216.536 257.453ZM216.536 255.522C215.416 255.522 214.786 254.492 214.786 252.664V252.651C214.786 250.823 215.416 249.794 216.536 249.794C217.643 249.794 218.274 250.823 218.274 252.651V252.664C218.274 254.492 217.643 255.522 216.536 255.522Z" fill="#ED274B"/>
<path d="M275.623 257.286H278.262V243.601H279.601L276.589 239.225L283.952 257.286H286.076L293.453 239.225L290.428 243.601H291.766V257.286H294.405V238.71H291.058L285.059 253.527H284.969L278.97 238.71H275.623V257.286ZM297.701 257.286H300.495V243.717H297.701V257.286ZM299.091 241.593C299.555 241.593 299.941 241.434 300.25 241.117C300.568 240.799 300.726 240.422 300.726 239.984C300.726 239.529 300.568 239.147 300.25 238.838C299.941 238.521 299.555 238.362 299.091 238.362C298.645 238.362 298.259 238.521 297.933 238.838C297.615 239.147 297.456 239.529 297.456 239.984C297.456 240.422 297.615 240.799 297.933 241.117C298.259 241.434 298.645 241.593 299.091 241.593ZM302.438 257.286H305.464L308.476 252.304H308.54L311.54 257.286H314.617L310.201 250.411L314.668 243.717H311.578L308.669 248.609H308.592L305.644 243.717H302.503L306.931 250.514L302.438 257.286ZM321.954 257.556C322.778 257.556 323.525 257.445 324.194 257.221C324.864 256.998 325.447 256.694 325.945 256.307C326.443 255.913 326.842 255.471 327.142 254.981C327.451 254.492 327.662 253.986 327.773 253.462L327.799 253.321H325.134L325.108 253.424C324.997 253.758 324.799 254.067 324.516 254.351C324.242 254.625 323.894 254.848 323.473 255.02C323.053 255.183 322.564 255.265 322.006 255.265C321.259 255.265 320.607 255.102 320.049 254.775C319.5 254.441 319.075 253.96 318.775 253.334C318.483 252.707 318.337 251.956 318.337 251.081V249.999C318.337 249.073 318.487 248.292 318.788 247.657C319.088 247.021 319.5 246.541 320.023 246.215C320.555 245.889 321.152 245.726 321.813 245.726C322.482 245.726 323.07 245.884 323.576 246.202C324.091 246.511 324.495 246.983 324.786 247.618C325.078 248.244 325.224 249.038 325.224 249.999V251.068L326.589 249.24H316.934V251.21H327.953V250.257C327.953 248.901 327.704 247.712 327.207 246.691C326.709 245.661 326.001 244.863 325.083 244.297C324.164 243.73 323.07 243.447 321.8 243.447C320.53 243.447 319.427 243.743 318.491 244.335C317.556 244.919 316.831 245.743 316.316 246.807C315.801 247.871 315.543 249.111 315.543 250.527V250.54C315.543 251.965 315.797 253.205 316.303 254.261C316.818 255.308 317.556 256.119 318.517 256.694C319.478 257.269 320.624 257.556 321.954 257.556ZM330.18 257.286H332.974V249.201C332.974 248.523 333.094 247.948 333.334 247.476C333.575 246.996 333.914 246.631 334.351 246.382C334.798 246.125 335.321 245.996 335.922 245.996C336.197 245.996 336.445 246.013 336.669 246.047C336.9 246.073 337.076 246.107 337.196 246.15V243.563C337.093 243.537 336.952 243.511 336.772 243.486C336.6 243.46 336.415 243.447 336.218 243.447C335.428 243.447 334.755 243.679 334.197 244.142C333.648 244.597 333.266 245.223 333.051 246.022H332.974V243.717H330.18V257.286Z" fill="black"/>
<line opacity="0.1" x1="347.759" y1="246.687" x2="741.232" y2="246.687" stroke="#93A9C3" stroke-width="2.19704" stroke-linecap="round" stroke-dasharray="10.99 10.99"/>
<path d="M760.722 260.464H762.419V257.94C766.249 257.685 769.253 255.582 769.253 251.903V251.888C769.253 248.689 767.12 247.052 763.14 246.136L762.419 245.97V239.692C764.357 239.933 765.663 241.059 765.873 242.801L765.888 242.936H769.012L768.997 242.696C768.757 239.422 766.129 237.244 762.419 236.959V234.436H760.722V236.959C756.922 237.244 754.234 239.482 754.234 242.816V242.831C754.234 245.88 756.261 247.622 760.106 248.508L760.722 248.644V255.207C758.289 254.952 757.208 253.66 756.922 252.053L756.892 251.888H753.783L753.798 252.098C754.039 255.522 756.907 257.655 760.722 257.94V260.464ZM757.418 242.636V242.606C757.418 241.239 758.559 239.963 760.722 239.692V245.58C758.304 245.009 757.418 244.018 757.418 242.636ZM762.449 249.049C765.273 249.71 766.069 250.626 766.069 252.143V252.158C766.069 253.765 765.017 255.027 762.419 255.237V249.034L762.449 249.049ZM783.115 258.286H786.344V253.975H789.333V251.152H786.344V236.614H781.478L772.271 251.047V253.975H783.115V258.286ZM775.395 251.197V251.107L783.055 239.272H783.145V251.197H775.395ZM793.658 258.511C794.755 258.511 795.626 257.64 795.626 256.544C795.626 255.432 794.755 254.576 793.658 254.576C792.547 254.576 791.676 255.432 791.676 256.544C791.676 257.64 792.547 258.511 793.658 258.511ZM809.218 258.286H812.447V253.975H815.436V251.152H812.447V236.614H807.581L798.374 251.047V253.975H809.218V258.286ZM801.498 251.197V251.107L809.158 239.272H809.248V251.197H801.498ZM817.989 258.286H832.812V255.447H822.495V255.312L827.421 250.476C831.311 246.631 832.467 244.874 832.467 242.396V242.366C832.467 238.866 829.493 236.253 825.333 236.253C821.098 236.253 817.809 239.062 817.809 242.936V243.027H820.993V242.936C821.023 240.744 822.84 239.032 825.378 239.032C827.571 239.032 829.133 240.503 829.148 242.561V242.591C829.148 244.273 828.502 245.415 825.618 248.298L817.989 255.973V258.286Z" fill="black"/>
<rect opacity="0.2" x="137.655" y="216.103" width="37.3498" height="61.5172" rx="8.78818" fill="#E64C3C"/>
<path d="M165.835 345.489C170.38 345.489 173.135 341.795 173.135 335.886V335.86C173.135 329.951 170.38 326.27 165.835 326.27C161.278 326.27 158.536 329.951 158.536 335.86V335.886C158.536 341.795 161.278 345.489 165.835 345.489ZM165.835 342.773C163.325 342.773 161.883 340.173 161.883 335.886V335.86C161.883 331.573 163.325 328.999 165.835 328.999C168.333 328.999 169.788 331.573 169.788 335.86V335.886C169.788 340.173 168.333 342.773 165.835 342.773ZM178.247 345.374C179.29 345.374 180.101 344.55 180.101 343.507C180.101 342.477 179.29 341.653 178.247 341.653C177.205 341.653 176.381 342.477 176.381 343.507C176.381 344.55 177.205 345.374 178.247 345.374ZM190.698 345.489C194.804 345.489 197.636 343.224 197.636 339.993V339.967C197.636 337.392 195.821 335.77 193.079 335.513V335.448C195.306 334.985 196.98 333.453 196.98 331.149V331.123C196.98 328.239 194.495 326.27 190.659 326.27C186.913 326.27 184.377 328.355 184.107 331.496L184.094 331.651H187.183L187.196 331.522C187.363 329.926 188.702 328.909 190.659 328.909C192.654 328.909 193.787 329.887 193.787 331.56V331.586C193.787 333.208 192.423 334.367 190.376 334.367H188.252V336.839H190.453C192.822 336.839 194.264 337.92 194.264 339.877V339.902C194.264 341.589 192.835 342.773 190.685 342.773C188.509 342.773 187.067 341.679 186.887 340.173L186.874 340.031H183.695L183.707 340.186C183.965 343.301 186.617 345.489 190.698 345.489ZM205.658 336.015C208.207 336.015 209.752 334.174 209.752 331.226V331.213C209.752 328.265 208.207 326.424 205.658 326.424C203.097 326.424 201.539 328.265 201.539 331.213V331.226C201.539 334.174 203.097 336.015 205.658 336.015ZM207.177 345.168L218.969 326.591H216.395L204.577 345.168H207.177ZM205.658 334.084C204.538 334.084 203.908 333.054 203.908 331.226V331.213C203.908 329.385 204.538 328.355 205.658 328.355C206.765 328.355 207.383 329.385 207.383 331.213V331.226C207.383 333.054 206.765 334.084 205.658 334.084ZM217.901 345.335C220.45 345.335 222.007 343.494 222.007 340.533V340.52C222.007 337.585 220.45 335.744 217.901 335.744C215.352 335.744 213.794 337.585 213.794 340.52V340.533C213.794 343.494 215.352 345.335 217.901 345.335ZM217.901 343.404C216.781 343.404 216.15 342.374 216.15 340.546V340.533C216.15 338.705 216.781 337.675 217.901 337.675C219.008 337.675 219.639 338.705 219.639 340.533V340.546C219.639 342.374 219.008 343.404 217.901 343.404Z" fill="#ED274B"/>
<path d="M275.623 345.168H287.428V342.67H278.52V336.916H286.952V334.496H278.52V329.089H287.428V326.591H275.623V345.168ZM289.127 345.168H292.153L295.165 340.186H295.229L298.229 345.168H301.306L296.89 338.293L301.357 331.599H298.267L295.358 336.491H295.281L292.333 331.599H289.192L293.62 338.396L289.127 345.168ZM308.669 345.438C309.768 345.438 310.733 345.228 311.566 344.807C312.407 344.387 313.08 343.816 313.587 343.095C314.093 342.365 314.398 341.55 314.501 340.649L314.514 340.559H311.836L311.81 340.662C311.647 341.391 311.3 341.979 310.767 342.426C310.235 342.872 309.54 343.095 308.682 343.095C307.961 343.095 307.33 342.91 306.79 342.541C306.249 342.164 305.828 341.627 305.528 340.932C305.228 340.229 305.077 339.379 305.077 338.383V338.37C305.077 337.409 305.223 336.577 305.515 335.873C305.816 335.169 306.232 334.624 306.764 334.238C307.305 333.852 307.935 333.659 308.656 333.659C309.566 333.659 310.283 333.903 310.806 334.393C311.33 334.873 311.664 335.444 311.81 336.105L311.823 336.208H314.501L314.488 336.118C314.411 335.259 314.127 334.47 313.638 333.749C313.158 333.019 312.497 332.436 311.656 331.998C310.815 331.552 309.811 331.329 308.643 331.329C307.347 331.329 306.219 331.616 305.258 332.191C304.296 332.758 303.55 333.569 303.018 334.624C302.494 335.671 302.232 336.916 302.232 338.358V338.37C302.232 339.812 302.494 341.065 303.018 342.129C303.541 343.185 304.284 344 305.245 344.575C306.215 345.15 307.356 345.438 308.669 345.438ZM316.689 345.168H319.496V337.302C319.496 336.59 319.629 335.967 319.895 335.435C320.161 334.903 320.53 334.487 321.002 334.187C321.482 333.878 322.044 333.723 322.688 333.723C323.667 333.723 324.422 334.036 324.954 334.663C325.495 335.289 325.765 336.165 325.765 337.289V345.168H328.558V336.748C328.558 335.65 328.357 334.697 327.953 333.891C327.559 333.084 327.001 332.457 326.28 332.011C325.567 331.556 324.722 331.329 323.744 331.329C322.74 331.329 321.881 331.548 321.169 331.985C320.457 332.414 319.92 333.024 319.56 333.813H319.496V326.527H316.689V345.168ZM335.317 345.412C335.918 345.412 336.48 345.318 337.003 345.129C337.535 344.932 338.012 344.657 338.432 344.305C338.853 343.945 339.192 343.524 339.449 343.043H339.526V345.168H342.32V335.822C342.32 334.912 342.097 334.122 341.651 333.453C341.213 332.775 340.591 332.251 339.784 331.882C338.977 331.513 338.016 331.329 336.9 331.329C335.793 331.329 334.836 331.509 334.03 331.869C333.231 332.23 332.601 332.719 332.137 333.337C331.682 333.955 331.416 334.654 331.339 335.435L331.326 335.577H333.965L333.991 335.461C334.111 334.92 334.411 334.483 334.892 334.148C335.381 333.805 336.025 333.633 336.823 333.633C337.69 333.633 338.355 333.848 338.818 334.277C339.29 334.697 339.526 335.281 339.526 336.028V340.095C339.526 340.679 339.372 341.207 339.063 341.679C338.763 342.142 338.351 342.507 337.827 342.773C337.312 343.039 336.729 343.172 336.076 343.172C335.33 343.172 334.729 343.001 334.274 342.657C333.819 342.314 333.592 341.842 333.592 341.241V341.215C333.592 340.64 333.815 340.181 334.261 339.838C334.716 339.486 335.364 339.284 336.205 339.233L340.955 338.937V336.98L335.845 337.276C334.24 337.371 332.995 337.765 332.111 338.461C331.227 339.156 330.785 340.1 330.785 341.293V341.318C330.785 342.125 330.974 342.838 331.352 343.455C331.738 344.073 332.27 344.554 332.948 344.897C333.626 345.241 334.416 345.412 335.317 345.412ZM345.113 345.168H347.907V337.25C347.907 336.538 348.04 335.92 348.306 335.397C348.572 334.865 348.945 334.453 349.426 334.161C349.915 333.869 350.486 333.723 351.138 333.723C352.108 333.723 352.829 333.998 353.301 334.547C353.781 335.096 354.022 335.89 354.022 336.929V345.168H356.815V336.375C356.815 334.805 356.408 333.573 355.592 332.68C354.777 331.779 353.623 331.329 352.129 331.329C351.108 331.329 350.25 331.543 349.555 331.972C348.868 332.393 348.345 332.951 347.984 333.646H347.907V331.599H345.113V345.168ZM365.531 349.956C366.809 349.956 367.912 349.742 368.839 349.313C369.774 348.884 370.495 348.283 371.002 347.511C371.508 346.738 371.761 345.833 371.761 344.794V331.599H368.968V333.891H368.903C368.637 333.376 368.294 332.929 367.873 332.552C367.462 332.166 366.985 331.865 366.445 331.651C365.912 331.436 365.325 331.329 364.681 331.329C363.539 331.329 362.54 331.612 361.681 332.178C360.823 332.745 360.158 333.543 359.686 334.573C359.214 335.603 358.978 336.826 358.978 338.242V338.255C358.978 339.654 359.21 340.868 359.673 341.898C360.145 342.928 360.806 343.726 361.656 344.292C362.505 344.85 363.497 345.129 364.629 345.129C365.282 345.129 365.882 345.03 366.432 344.833C366.981 344.635 367.462 344.361 367.873 344.009C368.294 343.649 368.633 343.219 368.89 342.722H368.968V344.653C368.968 345.588 368.667 346.33 368.067 346.88C367.474 347.438 366.625 347.716 365.518 347.716C364.651 347.716 363.934 347.579 363.368 347.305C362.801 347.03 362.424 346.678 362.235 346.249L362.196 346.146H359.416L359.441 346.249C359.57 346.944 359.896 347.571 360.42 348.128C360.943 348.695 361.634 349.141 362.492 349.467C363.359 349.793 364.372 349.956 365.531 349.956ZM365.415 342.863C364.685 342.863 364.05 342.679 363.509 342.31C362.969 341.932 362.552 341.404 362.261 340.726C361.969 340.04 361.823 339.224 361.823 338.28V338.267C361.823 337.341 361.969 336.538 362.261 335.86C362.552 335.182 362.969 334.659 363.509 334.29C364.05 333.912 364.685 333.723 365.415 333.723C366.127 333.723 366.749 333.912 367.281 334.29C367.813 334.659 368.23 335.186 368.53 335.873C368.83 336.551 368.981 337.349 368.981 338.267V338.28C368.981 339.207 368.83 340.014 368.53 340.701C368.23 341.387 367.813 341.919 367.281 342.297C366.758 342.674 366.136 342.863 365.415 342.863ZM380.399 345.438C381.223 345.438 381.97 345.326 382.639 345.103C383.309 344.88 383.892 344.575 384.39 344.189C384.888 343.794 385.287 343.352 385.587 342.863C385.896 342.374 386.106 341.868 386.218 341.344L386.244 341.203H383.579L383.553 341.306C383.442 341.64 383.244 341.949 382.961 342.232C382.686 342.507 382.339 342.73 381.918 342.902C381.498 343.065 381.009 343.146 380.451 343.146C379.704 343.146 379.052 342.983 378.494 342.657C377.945 342.323 377.52 341.842 377.219 341.215C376.928 340.589 376.782 339.838 376.782 338.963V337.881C376.782 336.954 376.932 336.173 377.232 335.538C377.533 334.903 377.945 334.423 378.468 334.097C379 333.77 379.597 333.607 380.258 333.607C380.927 333.607 381.515 333.766 382.021 334.084C382.536 334.393 382.94 334.865 383.231 335.5C383.523 336.126 383.669 336.92 383.669 337.881V338.95L385.034 337.122H375.379V339.091H386.398V338.139C386.398 336.783 386.149 335.594 385.651 334.573C385.154 333.543 384.446 332.745 383.527 332.178C382.609 331.612 381.515 331.329 380.245 331.329C378.975 331.329 377.872 331.625 376.936 332.217C376.001 332.801 375.276 333.625 374.761 334.689C374.246 335.753 373.988 336.993 373.988 338.409V338.422C373.988 339.847 374.241 341.087 374.748 342.142C375.263 343.189 376.001 344 376.962 344.575C377.923 345.15 379.069 345.438 380.399 345.438ZM394.444 345.168H397.34V337.392H405.322V334.959H397.34V329.089H406.056V326.591H394.444V345.168ZM408.321 345.168H411.115V337.083C411.115 336.405 411.235 335.83 411.475 335.358C411.716 334.878 412.055 334.513 412.492 334.264C412.939 334.006 413.462 333.878 414.063 333.878C414.338 333.878 414.586 333.895 414.81 333.929C415.041 333.955 415.217 333.989 415.337 334.032V331.445C415.234 331.419 415.093 331.393 414.913 331.367C414.741 331.342 414.556 331.329 414.359 331.329C413.569 331.329 412.896 331.56 412.338 332.024C411.789 332.479 411.407 333.105 411.192 333.903H411.115V331.599H408.321V345.168ZM420.847 345.412C421.448 345.412 422.01 345.318 422.534 345.129C423.066 344.932 423.542 344.657 423.962 344.305C424.383 343.945 424.722 343.524 424.979 343.043H425.057V345.168H427.85V335.822C427.85 334.912 427.627 334.122 427.181 333.453C426.743 332.775 426.121 332.251 425.314 331.882C424.507 331.513 423.546 331.329 422.431 331.329C421.323 331.329 420.367 331.509 419.56 331.869C418.762 332.23 418.131 332.719 417.667 333.337C417.213 333.955 416.947 334.654 416.869 335.435L416.856 335.577H419.495L419.521 335.461C419.641 334.92 419.942 334.483 420.422 334.148C420.911 333.805 421.555 333.633 422.353 333.633C423.22 333.633 423.885 333.848 424.349 334.277C424.821 334.697 425.057 335.281 425.057 336.028V340.095C425.057 340.679 424.902 341.207 424.593 341.679C424.293 342.142 423.881 342.507 423.357 342.773C422.842 343.039 422.259 343.172 421.607 343.172C420.86 343.172 420.259 343.001 419.804 342.657C419.35 342.314 419.122 341.842 419.122 341.241V341.215C419.122 340.64 419.345 340.181 419.792 339.838C420.246 339.486 420.894 339.284 421.735 339.233L426.486 338.937V336.98L421.375 337.276C419.77 337.371 418.526 337.765 417.642 338.461C416.758 339.156 416.316 340.1 416.316 341.293V341.318C416.316 342.125 416.505 342.838 416.882 343.455C417.268 344.073 417.8 344.554 418.478 344.897C419.156 345.241 419.946 345.412 420.847 345.412ZM435.265 345.438C436.295 345.438 437.153 345.228 437.84 344.807C438.535 344.378 439.059 343.816 439.41 343.121H439.488V345.168H442.281V331.599H439.488V339.516C439.488 340.22 439.355 340.838 439.089 341.37C438.823 341.893 438.445 342.301 437.956 342.593C437.475 342.885 436.909 343.031 436.256 343.031C435.287 343.031 434.561 342.756 434.081 342.207C433.609 341.657 433.373 340.868 433.373 339.838V331.599H430.579V340.392C430.579 341.43 430.76 342.327 431.12 343.082C431.489 343.837 432.021 344.421 432.716 344.833C433.42 345.236 434.27 345.438 435.265 345.438ZM450.185 345.438C451.155 345.438 452.005 345.21 452.734 344.756C453.464 344.301 454.03 343.674 454.434 342.876H454.498V345.168H457.304V326.527H454.498V333.891H454.434C454.03 333.092 453.455 332.466 452.709 332.011C451.962 331.556 451.112 331.329 450.16 331.329C449.018 331.329 448.023 331.616 447.173 332.191C446.332 332.758 445.675 333.569 445.203 334.624C444.74 335.68 444.508 336.929 444.508 338.37V338.383C444.508 339.825 444.74 341.074 445.203 342.129C445.667 343.185 446.323 344 447.173 344.575C448.031 345.15 449.035 345.438 450.185 345.438ZM450.919 343.031C450.19 343.031 449.555 342.846 449.014 342.477C448.482 342.099 448.07 341.563 447.778 340.868C447.495 340.164 447.353 339.336 447.353 338.383V338.37C447.353 337.409 447.495 336.585 447.778 335.899C448.07 335.204 448.482 334.667 449.014 334.29C449.555 333.912 450.19 333.723 450.919 333.723C451.631 333.723 452.254 333.916 452.786 334.302C453.326 334.689 453.747 335.229 454.047 335.925C454.356 336.611 454.511 337.426 454.511 338.37V338.383C454.511 339.319 454.361 340.138 454.06 340.842C453.76 341.537 453.339 342.078 452.799 342.464C452.258 342.842 451.631 343.031 450.919 343.031ZM464.848 345.438C465.878 345.438 466.736 345.228 467.423 344.807C468.118 344.378 468.641 343.816 468.993 343.121H469.071V345.168H471.864V331.599H469.071V339.516C469.071 340.22 468.938 340.838 468.671 341.37C468.405 341.893 468.028 342.301 467.539 342.593C467.058 342.885 466.492 343.031 465.839 343.031C464.87 343.031 464.144 342.756 463.664 342.207C463.192 341.657 462.956 340.868 462.956 339.838V331.599H460.162V340.392C460.162 341.43 460.342 342.327 460.703 343.082C461.072 343.837 461.604 344.421 462.299 344.833C463.003 345.236 463.853 345.438 464.848 345.438ZM474.799 345.168H477.606V326.527H474.799V345.168ZM486.347 345.438C487.17 345.438 487.917 345.326 488.586 345.103C489.256 344.88 489.839 344.575 490.337 344.189C490.835 343.794 491.234 343.352 491.534 342.863C491.843 342.374 492.054 341.868 492.165 341.344L492.191 341.203H489.526L489.5 341.306C489.389 341.64 489.192 341.949 488.908 342.232C488.634 342.507 488.286 342.73 487.866 342.902C487.445 343.065 486.956 343.146 486.398 343.146C485.651 343.146 484.999 342.983 484.441 342.657C483.892 342.323 483.467 341.842 483.167 341.215C482.875 340.589 482.729 339.838 482.729 338.963V337.881C482.729 336.954 482.879 336.173 483.18 335.538C483.48 334.903 483.892 334.423 484.416 334.097C484.948 333.77 485.544 333.607 486.205 333.607C486.874 333.607 487.462 333.766 487.969 334.084C488.483 334.393 488.887 334.865 489.179 335.5C489.47 336.126 489.616 336.92 489.616 337.881V338.95L490.981 337.122H481.326V339.091H492.345V338.139C492.345 336.783 492.097 335.594 491.599 334.573C491.101 333.543 490.393 332.745 489.475 332.178C488.556 331.612 487.462 331.329 486.192 331.329C484.922 331.329 483.819 331.625 482.884 332.217C481.948 332.801 481.223 333.625 480.708 334.689C480.193 335.753 479.936 336.993 479.936 338.409V338.422C479.936 339.847 480.189 341.087 480.695 342.142C481.21 343.189 481.948 344 482.909 344.575C483.871 345.15 485.016 345.438 486.347 345.438ZM494.573 345.168H497.366V337.25C497.366 336.538 497.499 335.92 497.765 335.397C498.031 334.865 498.405 334.453 498.885 334.161C499.374 333.869 499.945 333.723 500.597 333.723C501.567 333.723 502.288 333.998 502.76 334.547C503.241 335.096 503.481 335.89 503.481 336.929V345.168H506.274V336.375C506.274 334.805 505.867 333.573 505.051 332.68C504.236 331.779 503.082 331.329 501.589 331.329C500.567 331.329 499.709 331.543 499.014 331.972C498.327 332.393 497.804 332.951 497.443 333.646H497.366V331.599H494.573V345.168ZM513.844 345.425C514.127 345.425 514.393 345.412 514.642 345.386C514.9 345.361 515.11 345.335 515.273 345.309V343.146C515.17 343.155 515.054 343.168 514.925 343.185C514.797 343.194 514.655 343.198 514.5 343.198C513.908 343.198 513.462 343.069 513.162 342.812C512.861 342.554 512.711 342.078 512.711 341.383V333.813H515.273V331.599H512.711V328.072H509.84V331.599H507.884V333.813H509.84V341.589C509.84 342.936 510.171 343.915 510.832 344.524C511.492 345.125 512.497 345.425 513.844 345.425Z" fill="black"/>
<line opacity="0.1" x1="526.759" y1="334.569" x2="748.232" y2="334.569" stroke="#93A9C3" stroke-width="2.19704" stroke-linecap="round" stroke-dasharray="10.99 10.99"/>
<path d="M767.12 348.345H768.817V345.822C772.647 345.567 775.651 343.464 775.651 339.785V339.77C775.651 336.571 773.518 334.933 769.538 334.017L768.817 333.852V327.574C770.755 327.815 772.061 328.941 772.271 330.683L772.286 330.818H775.41L775.395 330.578C775.155 327.304 772.527 325.126 768.817 324.841V322.318H767.12V324.841C763.32 325.126 760.632 327.364 760.632 330.698V330.713C760.632 333.762 762.659 335.504 766.504 336.39L767.12 336.525V343.089C764.687 342.833 763.606 341.542 763.32 339.935L763.29 339.77H760.181L760.196 339.98C760.437 343.404 763.305 345.537 767.12 345.822V348.345ZM763.816 330.518V330.488C763.816 329.121 764.957 327.845 767.12 327.574V333.462C764.702 332.891 763.816 331.9 763.816 330.518ZM768.847 336.931C771.671 337.592 772.467 338.508 772.467 340.025V340.04C772.467 341.647 771.415 342.908 768.817 343.119V336.916L768.847 336.931ZM779.21 346.168H794.034V343.329H783.716V343.194L788.642 338.358C792.532 334.513 793.688 332.756 793.688 330.278V330.248C793.688 326.748 790.715 324.135 786.554 324.135C782.319 324.135 779.03 326.943 779.03 330.818V330.908H782.214V330.818C782.244 328.626 784.061 326.913 786.599 326.913C788.792 326.913 790.354 328.385 790.369 330.443V330.473C790.369 332.155 789.723 333.296 786.84 336.18L779.21 343.855V346.168ZM798.795 346.393C799.891 346.393 800.762 345.522 800.762 344.425C800.762 343.314 799.891 342.458 798.795 342.458C797.683 342.458 796.812 343.314 796.812 344.425C796.812 345.522 797.683 346.393 798.795 346.393ZM803.931 346.168H818.755V343.329H808.437V343.194L813.363 338.358C817.253 334.513 818.409 332.756 818.409 330.278V330.248C818.409 326.748 815.436 324.135 811.275 324.135C807.04 324.135 803.751 326.943 803.751 330.818V330.908H806.935V330.818C806.965 328.626 808.782 326.913 811.321 326.913C813.513 326.913 815.075 328.385 815.09 330.443V330.473C815.09 332.155 814.444 333.296 811.561 336.18L803.931 343.855V346.168ZM827.225 346.168H830.515V324.495H827.195L821.488 328.55V331.734L827.15 327.83H827.225V346.168Z" fill="black"/>
<rect opacity="0.2" x="137.655" y="303.985" width="37.3498" height="61.5172" rx="8.78818" fill="#E64C3C"/>
<path d="M165.835 433.371C170.38 433.371 173.135 429.677 173.135 423.768V423.742C173.135 417.833 170.38 414.151 165.835 414.151C161.278 414.151 158.536 417.833 158.536 423.742V423.768C158.536 429.677 161.278 433.371 165.835 433.371ZM165.835 430.655C163.325 430.655 161.883 428.054 161.883 423.768V423.742C161.883 419.455 163.325 416.88 165.835 416.88C168.333 416.88 169.788 419.455 169.788 423.742V423.768C169.788 428.054 168.333 430.655 165.835 430.655ZM178.247 433.255C179.29 433.255 180.101 432.431 180.101 431.389C180.101 430.359 179.29 429.535 178.247 429.535C177.205 429.535 176.381 430.359 176.381 431.389C176.381 432.431 177.205 433.255 178.247 433.255ZM187.878 433.049H191.135V414.473H187.853L182.999 417.885V420.936L187.801 417.64H187.878V433.049ZM200.895 423.896C203.444 423.896 204.989 422.056 204.989 419.108V419.095C204.989 416.147 203.444 414.306 200.895 414.306C198.333 414.306 196.776 416.147 196.776 419.095V419.108C196.776 422.056 198.333 423.896 200.895 423.896ZM202.414 433.049L214.206 414.473H211.632L199.814 433.049H202.414ZM200.895 421.965C199.775 421.965 199.144 420.936 199.144 419.108V419.095C199.144 417.267 199.775 416.237 200.895 416.237C202.002 416.237 202.62 417.267 202.62 419.095V419.108C202.62 420.936 202.002 421.965 200.895 421.965ZM213.138 433.217C215.687 433.217 217.244 431.376 217.244 428.415V428.402C217.244 425.467 215.687 423.626 213.138 423.626C210.589 423.626 209.031 425.467 209.031 428.402V428.415C209.031 431.376 210.589 433.217 213.138 433.217ZM213.138 431.286C212.018 431.286 211.387 430.256 211.387 428.428V428.415C211.387 426.587 212.018 425.557 213.138 425.557C214.245 425.557 214.876 426.587 214.876 428.415V428.428C214.876 430.256 214.245 431.286 213.138 431.286Z" fill="#ED274B"/>
<path d="M275.623 433.049H282.189C284.042 433.049 285.622 432.685 286.926 431.955C288.239 431.217 289.243 430.153 289.938 428.763C290.642 427.364 290.994 425.686 290.994 423.729V423.703C290.994 421.747 290.642 420.082 289.938 418.708C289.235 417.335 288.226 416.288 286.913 415.567C285.609 414.838 284.034 414.473 282.189 414.473H275.623V433.049ZM278.52 430.552V416.971H281.918C283.223 416.971 284.33 417.232 285.24 417.756C286.149 418.271 286.84 419.035 287.312 420.047C287.793 421.051 288.033 422.279 288.033 423.729V423.755C288.033 425.214 287.797 426.45 287.325 427.462C286.853 428.475 286.162 429.243 285.253 429.767C284.343 430.29 283.231 430.552 281.918 430.552H278.52ZM297.444 433.294C298.044 433.294 298.606 433.2 299.13 433.011C299.662 432.813 300.138 432.539 300.559 432.187C300.979 431.826 301.318 431.406 301.576 430.925H301.653V433.049H304.447V423.703C304.447 422.794 304.224 422.004 303.777 421.335C303.34 420.657 302.717 420.133 301.911 419.764C301.104 419.395 300.143 419.211 299.027 419.211C297.92 419.211 296.963 419.391 296.156 419.751C295.358 420.112 294.727 420.601 294.264 421.219C293.809 421.837 293.543 422.536 293.466 423.317L293.453 423.459H296.092L296.118 423.343C296.238 422.802 296.538 422.364 297.019 422.03C297.508 421.686 298.152 421.515 298.95 421.515C299.817 421.515 300.482 421.729 300.945 422.159C301.417 422.579 301.653 423.163 301.653 423.909V427.977C301.653 428.561 301.499 429.089 301.19 429.561C300.889 430.024 300.477 430.389 299.954 430.655C299.439 430.921 298.855 431.054 298.203 431.054C297.456 431.054 296.856 430.882 296.401 430.539C295.946 430.196 295.719 429.724 295.719 429.123V429.097C295.719 428.522 295.942 428.063 296.388 427.72C296.843 427.368 297.491 427.166 298.332 427.115L303.082 426.819V424.862L297.971 425.158C296.367 425.252 295.122 425.647 294.238 426.342C293.354 427.037 292.912 427.982 292.912 429.174V429.2C292.912 430.007 293.101 430.719 293.479 431.337C293.865 431.955 294.397 432.436 295.075 432.779C295.753 433.122 296.542 433.294 297.444 433.294ZM307.24 433.049H310.034V424.965C310.034 424.287 310.154 423.712 310.394 423.24C310.634 422.759 310.973 422.395 311.411 422.146C311.857 421.888 312.381 421.759 312.982 421.759C313.256 421.759 313.505 421.777 313.728 421.811C313.96 421.837 314.136 421.871 314.256 421.914V419.326C314.153 419.301 314.012 419.275 313.831 419.249C313.66 419.223 313.475 419.211 313.278 419.211C312.488 419.211 311.814 419.442 311.257 419.906C310.707 420.361 310.325 420.987 310.111 421.785H310.034V419.481H307.24V433.049ZM316.2 433.049H319.006V414.409H316.2V433.049ZM324.761 433.049H328.018L321.787 424.772L319.959 426.741L324.761 433.049ZM318.53 428.634L320.976 426.188L321.439 426.123L327.786 419.481H324.503L319.071 425.248H318.517L318.53 428.634ZM341.638 433.371C343.105 433.371 344.367 433.148 345.422 432.702C346.487 432.247 347.302 431.603 347.868 430.771C348.443 429.93 348.731 428.943 348.731 427.81V427.797C348.731 426.372 348.293 425.248 347.418 424.424C346.551 423.592 345.156 422.974 343.234 422.57L341.213 422.133C340.054 421.884 339.2 421.541 338.651 421.103C338.11 420.657 337.84 420.086 337.84 419.391V419.378C337.84 418.837 337.995 418.365 338.303 417.962C338.612 417.55 339.05 417.232 339.617 417.009C340.183 416.777 340.848 416.662 341.612 416.662C342.35 416.662 342.998 416.773 343.556 416.996C344.114 417.219 344.564 417.537 344.907 417.949C345.251 418.352 345.465 418.841 345.551 419.416L345.577 419.584H348.383L348.37 419.378C348.302 418.348 347.98 417.438 347.405 416.649C346.83 415.859 346.049 415.246 345.062 414.808C344.084 414.37 342.946 414.151 341.651 414.151C340.346 414.151 339.183 414.379 338.162 414.834C337.149 415.28 336.355 415.906 335.78 416.713C335.205 417.511 334.913 418.442 334.905 419.507V419.519C334.905 420.893 335.351 422.008 336.244 422.867C337.136 423.716 338.492 424.334 340.312 424.72L342.333 425.158C343.569 425.424 344.457 425.78 344.998 426.226C345.538 426.664 345.809 427.252 345.809 427.99V428.003C345.809 428.578 345.641 429.084 345.307 429.522C344.972 429.951 344.504 430.282 343.903 430.513C343.303 430.745 342.586 430.861 341.754 430.861C340.93 430.861 340.2 430.749 339.565 430.526C338.93 430.294 338.415 429.973 338.02 429.561C337.634 429.149 337.398 428.66 337.312 428.093L337.286 427.926H334.467L334.48 428.119C334.557 429.2 334.901 430.136 335.51 430.925C336.119 431.715 336.943 432.32 337.982 432.74C339.029 433.161 340.247 433.371 341.638 433.371ZM356.867 433.32C357.691 433.32 358.437 433.208 359.107 432.985C359.776 432.762 360.36 432.457 360.858 432.071C361.355 431.676 361.754 431.234 362.055 430.745C362.364 430.256 362.574 429.749 362.686 429.226L362.711 429.084H360.046L360.021 429.187C359.909 429.522 359.712 429.831 359.429 430.114C359.154 430.389 358.806 430.612 358.386 430.784C357.965 430.947 357.476 431.028 356.918 431.028C356.172 431.028 355.519 430.865 354.962 430.539C354.412 430.204 353.987 429.724 353.687 429.097C353.395 428.471 353.249 427.72 353.249 426.844V425.763C353.249 424.836 353.4 424.055 353.7 423.42C354 422.785 354.412 422.304 354.936 421.978C355.468 421.652 356.064 421.489 356.725 421.489C357.395 421.489 357.982 421.648 358.489 421.965C359.004 422.274 359.407 422.746 359.699 423.381C359.991 424.008 360.137 424.802 360.137 425.763V426.832L361.501 425.004H351.846V426.973H362.866V426.021C362.866 424.665 362.617 423.476 362.119 422.455C361.621 421.425 360.913 420.627 359.995 420.06C359.077 419.494 357.982 419.211 356.712 419.211C355.442 419.211 354.339 419.507 353.404 420.099C352.468 420.682 351.743 421.506 351.228 422.57C350.713 423.635 350.456 424.875 350.456 426.291V426.304C350.456 427.728 350.709 428.968 351.215 430.024C351.73 431.071 352.468 431.882 353.43 432.457C354.391 433.032 355.537 433.32 356.867 433.32ZM365.093 433.049H367.886V424.965C367.886 424.287 368.006 423.712 368.247 423.24C368.487 422.759 368.826 422.395 369.264 422.146C369.71 421.888 370.234 421.759 370.834 421.759C371.109 421.759 371.358 421.777 371.581 421.811C371.813 421.837 371.989 421.871 372.109 421.914V419.326C372.006 419.301 371.864 419.275 371.684 419.249C371.512 419.223 371.328 419.211 371.13 419.211C370.341 419.211 369.667 419.442 369.109 419.906C368.56 420.361 368.178 420.987 367.964 421.785H367.886V419.481H365.093V433.049ZM377.631 433.049H380.631L385.497 419.481H382.588L379.189 430.32H379.112L375.713 419.481H372.74L377.631 433.049ZM387.299 433.049H390.093V419.481H387.299V433.049ZM388.69 417.357C389.153 417.357 389.539 417.198 389.848 416.88C390.166 416.563 390.325 416.185 390.325 415.748C390.325 415.293 390.166 414.911 389.848 414.602C389.539 414.284 389.153 414.126 388.69 414.126C388.243 414.126 387.857 414.284 387.531 414.602C387.213 414.911 387.055 415.293 387.055 415.748C387.055 416.185 387.213 416.563 387.531 416.88C387.857 417.198 388.243 417.357 388.69 417.357ZM398.885 433.32C399.984 433.32 400.949 433.109 401.782 432.689C402.623 432.268 403.297 431.698 403.803 430.977C404.309 430.247 404.614 429.432 404.717 428.531L404.73 428.441H402.052L402.026 428.544C401.863 429.273 401.516 429.861 400.984 430.307C400.452 430.754 399.756 430.977 398.898 430.977C398.177 430.977 397.546 430.792 397.006 430.423C396.465 430.046 396.045 429.509 395.744 428.814C395.444 428.11 395.294 427.261 395.294 426.265V426.252C395.294 425.291 395.44 424.459 395.731 423.755C396.032 423.051 396.448 422.506 396.98 422.12C397.521 421.734 398.151 421.541 398.872 421.541C399.782 421.541 400.499 421.785 401.022 422.274C401.546 422.755 401.88 423.326 402.026 423.987L402.039 424.09H404.717L404.704 423.999C404.627 423.141 404.344 422.352 403.854 421.631C403.374 420.901 402.713 420.318 401.872 419.88C401.031 419.434 400.027 419.211 398.86 419.211C397.564 419.211 396.435 419.498 395.474 420.073C394.513 420.639 393.766 421.45 393.234 422.506C392.71 423.553 392.449 424.798 392.449 426.239V426.252C392.449 427.694 392.71 428.947 393.234 430.011C393.757 431.067 394.5 431.882 395.461 432.457C396.431 433.032 397.572 433.32 398.885 433.32ZM412.608 433.32C413.432 433.32 414.179 433.208 414.848 432.985C415.518 432.762 416.101 432.457 416.599 432.071C417.097 431.676 417.496 431.234 417.796 430.745C418.105 430.256 418.315 429.749 418.427 429.226L418.453 429.084H415.788L415.762 429.187C415.651 429.522 415.453 429.831 415.17 430.114C414.895 430.389 414.548 430.612 414.127 430.784C413.707 430.947 413.218 431.028 412.66 431.028C411.913 431.028 411.261 430.865 410.703 430.539C410.154 430.204 409.729 429.724 409.428 429.097C409.137 428.471 408.991 427.72 408.991 426.844V425.763C408.991 424.836 409.141 424.055 409.441 423.42C409.742 422.785 410.154 422.304 410.677 421.978C411.209 421.652 411.806 421.489 412.467 421.489C413.136 421.489 413.724 421.648 414.23 421.965C414.745 422.274 415.149 422.746 415.44 423.381C415.732 424.008 415.878 424.802 415.878 425.763V426.832L417.243 425.004H407.588V426.973H418.607V426.021C418.607 424.665 418.358 423.476 417.861 422.455C417.363 421.425 416.655 420.627 415.736 420.06C414.818 419.494 413.724 419.211 412.454 419.211C411.184 419.211 410.081 419.507 409.145 420.099C408.21 420.682 407.485 421.506 406.97 422.57C406.455 423.635 406.197 424.875 406.197 426.291V426.304C406.197 427.728 406.45 428.968 406.957 430.024C407.472 431.071 408.21 431.882 409.171 432.457C410.132 433.032 411.278 433.32 412.608 433.32Z" fill="black"/>
<line opacity="0.1" x1="429.759" y1="422.451" x2="746.232" y2="422.451" stroke="#93A9C3" stroke-width="2.19704" stroke-linecap="round" stroke-dasharray="10.99 10.99"/>
<path d="M764.837 436.227H766.534V433.704C770.364 433.449 773.368 431.346 773.368 427.666V427.651C773.368 424.452 771.235 422.815 767.255 421.899L766.534 421.734V415.456C768.472 415.696 769.778 416.823 769.989 418.565L770.004 418.7H773.128L773.113 418.46C772.872 415.186 770.244 413.008 766.534 412.723V410.199H764.837V412.723C761.037 413.008 758.349 415.246 758.349 418.58V418.595C758.349 421.644 760.377 423.386 764.221 424.272L764.837 424.407V430.97C762.404 430.715 761.323 429.424 761.037 427.817L761.007 427.651H757.898L757.913 427.862C758.154 431.286 761.022 433.419 764.837 433.704V436.227ZM761.533 418.4V418.37C761.533 417.003 762.674 415.726 764.837 415.456V421.343C762.419 420.773 761.533 419.781 761.533 418.4ZM766.564 424.813C769.388 425.474 770.184 426.39 770.184 427.907V427.922C770.184 429.529 769.133 430.79 766.534 431.001V424.798L766.564 424.813ZM784.842 434.41C790.009 434.41 793.118 430.099 793.118 423.221V423.191C793.118 416.312 790.009 412.017 784.842 412.017C779.661 412.017 776.567 416.312 776.567 423.191V423.221C776.567 430.099 779.661 434.41 784.842 434.41ZM784.842 431.601C781.748 431.601 779.961 428.417 779.961 423.221V423.191C779.961 417.994 781.748 414.84 784.842 414.84C787.921 414.84 789.723 417.994 789.723 423.191V423.221C789.723 428.417 787.921 431.601 784.842 431.601ZM797.233 434.275C798.329 434.275 799.2 433.404 799.2 432.307C799.2 431.196 798.329 430.34 797.233 430.34C796.121 430.34 795.25 431.196 795.25 432.307C795.25 433.404 796.121 434.275 797.233 434.275ZM802.76 434.049H806.289L815.706 415.291V412.377H800.957V415.216H812.387V415.291L802.76 434.049ZM827.03 434.049H830.259V429.739H833.248V426.915H830.259V412.377H825.393L816.187 426.81V429.739H827.03V434.049ZM819.311 426.96V426.87L826.97 415.035H827.06V426.96H819.311Z" fill="black"/>
<rect opacity="0.2" x="137.655" y="391.867" width="37.3498" height="61.5172" rx="8.78818" fill="#E64C3C"/>
<path d="M165.835 521.253C170.38 521.253 173.135 517.558 173.135 511.649V511.624C173.135 505.715 170.38 502.033 165.835 502.033C161.278 502.033 158.536 505.715 158.536 511.624V511.649C158.536 517.558 161.278 521.253 165.835 521.253ZM165.835 518.537C163.325 518.537 161.883 515.936 161.883 511.649V511.624C161.883 507.337 163.325 504.762 165.835 504.762C168.333 504.762 169.788 507.337 169.788 511.624V511.649C169.788 515.936 168.333 518.537 165.835 518.537ZM178.247 521.137C179.29 521.137 180.101 520.313 180.101 519.27C180.101 518.241 179.29 517.417 178.247 517.417C177.205 517.417 176.381 518.241 176.381 519.27C176.381 520.313 177.205 521.137 178.247 521.137ZM187.878 520.931H191.135V502.355H187.853L182.999 505.766V508.817L187.801 505.522H187.878V520.931ZM200.895 511.778C203.444 511.778 204.989 509.937 204.989 506.989V506.976C204.989 504.028 203.444 502.188 200.895 502.188C198.333 502.188 196.776 504.028 196.776 506.976V506.989C196.776 509.937 198.333 511.778 200.895 511.778ZM202.414 520.931L214.206 502.355H211.632L199.814 520.931H202.414ZM200.895 509.847C199.775 509.847 199.144 508.817 199.144 506.989V506.976C199.144 505.148 199.775 504.119 200.895 504.119C202.002 504.119 202.62 505.148 202.62 506.976V506.989C202.62 508.817 202.002 509.847 200.895 509.847ZM213.138 521.098C215.687 521.098 217.244 519.258 217.244 516.297V516.284C217.244 513.349 215.687 511.508 213.138 511.508C210.589 511.508 209.031 513.349 209.031 516.284V516.297C209.031 519.258 210.589 521.098 213.138 521.098ZM213.138 519.167C212.018 519.167 211.387 518.138 211.387 516.31V516.297C211.387 514.469 212.018 513.439 213.138 513.439C214.245 513.439 214.876 514.469 214.876 516.297V516.31C214.876 518.138 214.245 519.167 213.138 519.167Z" fill="#ED274B"/>
<path d="M281.957 521.253C283.425 521.253 284.686 521.03 285.742 520.584C286.806 520.129 287.621 519.485 288.188 518.653C288.763 517.811 289.05 516.825 289.05 515.692V515.679C289.05 514.254 288.612 513.13 287.737 512.306C286.87 511.474 285.476 510.856 283.553 510.452L281.532 510.015C280.374 509.766 279.52 509.422 278.97 508.985C278.43 508.538 278.159 507.968 278.159 507.273V507.26C278.159 506.719 278.314 506.247 278.623 505.844C278.932 505.432 279.369 505.114 279.936 504.891C280.502 504.659 281.167 504.543 281.931 504.543C282.669 504.543 283.317 504.655 283.875 504.878C284.433 505.101 284.884 505.419 285.227 505.831C285.57 506.234 285.785 506.723 285.87 507.298L285.896 507.466H288.703L288.69 507.26C288.621 506.23 288.299 505.32 287.724 504.53C287.149 503.741 286.368 503.127 285.381 502.69C284.403 502.252 283.266 502.033 281.97 502.033C280.665 502.033 279.502 502.261 278.481 502.715C277.469 503.162 276.675 503.788 276.1 504.595C275.525 505.393 275.233 506.324 275.224 507.388V507.401C275.224 508.774 275.671 509.89 276.563 510.748C277.456 511.598 278.812 512.216 280.631 512.602L282.652 513.04C283.888 513.306 284.776 513.662 285.317 514.108C285.858 514.546 286.128 515.134 286.128 515.872V515.885C286.128 516.46 285.961 516.966 285.626 517.404C285.291 517.833 284.823 518.163 284.223 518.395C283.622 518.627 282.905 518.743 282.073 518.743C281.249 518.743 280.519 518.631 279.884 518.408C279.249 518.176 278.734 517.854 278.34 517.442C277.953 517.03 277.717 516.541 277.632 515.975L277.606 515.808H274.787L274.799 516.001C274.877 517.082 275.22 518.017 275.829 518.807C276.439 519.597 277.263 520.202 278.301 520.622C279.348 521.043 280.567 521.253 281.957 521.253ZM297.212 521.201C298.31 521.201 299.276 520.991 300.108 520.571C300.949 520.15 301.623 519.579 302.129 518.858C302.636 518.129 302.94 517.314 303.043 516.413L303.056 516.322H300.379L300.353 516.425C300.19 517.155 299.842 517.743 299.31 518.189C298.778 518.635 298.083 518.858 297.225 518.858C296.504 518.858 295.873 518.674 295.332 518.305C294.792 517.927 294.371 517.391 294.071 516.696C293.77 515.992 293.62 515.142 293.62 514.147V514.134C293.62 513.173 293.766 512.34 294.058 511.637C294.358 510.933 294.775 510.388 295.307 510.002C295.847 509.615 296.478 509.422 297.199 509.422C298.109 509.422 298.825 509.667 299.349 510.156C299.872 510.637 300.207 511.207 300.353 511.868L300.366 511.971H303.043L303.031 511.881C302.953 511.023 302.67 510.233 302.181 509.512C301.7 508.783 301.04 508.199 300.198 507.762C299.357 507.315 298.353 507.092 297.186 507.092C295.89 507.092 294.762 507.38 293.8 507.955C292.839 508.521 292.093 509.332 291.56 510.388C291.037 511.435 290.775 512.679 290.775 514.121V514.134C290.775 515.576 291.037 516.829 291.56 517.893C292.084 518.949 292.826 519.764 293.788 520.339C294.757 520.914 295.899 521.201 297.212 521.201ZM309.107 521.176C309.708 521.176 310.27 521.081 310.793 520.892C311.325 520.695 311.802 520.42 312.222 520.069C312.643 519.708 312.982 519.288 313.239 518.807H313.316V520.931H316.11V511.585C316.11 510.675 315.887 509.886 315.44 509.216C315.003 508.538 314.381 508.015 313.574 507.646C312.767 507.277 311.806 507.092 310.69 507.092C309.583 507.092 308.626 507.273 307.819 507.633C307.021 507.993 306.391 508.483 305.927 509.101C305.472 509.718 305.206 510.418 305.129 511.199L305.116 511.34H307.755L307.781 511.225C307.901 510.684 308.201 510.246 308.682 509.912C309.171 509.568 309.815 509.397 310.613 509.397C311.48 509.397 312.145 509.611 312.608 510.04C313.08 510.461 313.316 511.044 313.316 511.791V515.859C313.316 516.443 313.162 516.97 312.853 517.442C312.553 517.906 312.141 518.271 311.617 518.537C311.102 518.803 310.519 518.936 309.866 518.936C309.12 518.936 308.519 518.764 308.064 518.421C307.609 518.078 307.382 517.605 307.382 517.005V516.979C307.382 516.404 307.605 515.945 308.051 515.602C308.506 515.25 309.154 515.048 309.995 514.996L314.745 514.7V512.744L309.635 513.04C308.03 513.134 306.785 513.529 305.901 514.224C305.017 514.919 304.575 515.863 304.575 517.056V517.082C304.575 517.889 304.764 518.601 305.142 519.219C305.528 519.837 306.06 520.317 306.738 520.661C307.416 521.004 308.206 521.176 309.107 521.176ZM318.903 520.931H321.697V512.551C321.697 511.958 321.817 511.435 322.057 510.98C322.306 510.517 322.641 510.152 323.061 509.886C323.491 509.62 323.98 509.487 324.529 509.487C325.31 509.487 325.932 509.718 326.396 510.182C326.859 510.645 327.091 511.272 327.091 512.061V520.931H329.846V512.435C329.846 511.86 329.962 511.353 330.193 510.916C330.425 510.469 330.751 510.122 331.172 509.873C331.592 509.615 332.081 509.487 332.639 509.487C333.472 509.487 334.111 509.731 334.557 510.22C335.004 510.701 335.227 511.383 335.227 512.267V520.931H338.02V511.598C338.02 510.68 337.836 509.886 337.467 509.216C337.106 508.547 336.596 508.028 335.935 507.659C335.274 507.281 334.497 507.092 333.605 507.092C332.961 507.092 332.36 507.2 331.802 507.414C331.245 507.629 330.755 507.933 330.335 508.328C329.923 508.723 329.601 509.199 329.369 509.757H329.305C329.125 509.191 328.854 508.71 328.494 508.315C328.134 507.92 327.7 507.62 327.194 507.414C326.696 507.2 326.138 507.092 325.52 507.092C324.636 507.092 323.864 507.307 323.203 507.736C322.542 508.165 322.066 508.736 321.774 509.448H321.697V507.363H318.903V520.931Z" fill="black"/>
<line opacity="0.1" x1="349.759" y1="510.333" x2="746.232" y2="510.333" stroke="#93A9C3" stroke-width="2.19704" stroke-linecap="round" stroke-dasharray="10.99 10.99"/>
<path d="M764.837 524.109H766.534V521.586C770.364 521.33 773.368 519.228 773.368 515.548V515.533C773.368 512.334 771.235 510.697 767.255 509.781L766.534 509.616V503.338C768.472 503.578 769.778 504.704 769.989 506.447L770.004 506.582H773.128L773.113 506.342C772.872 503.067 770.244 500.89 766.534 500.604V498.081H764.837V500.604C761.037 500.89 758.349 503.127 758.349 506.462V506.477C758.349 509.526 760.377 511.268 764.221 512.154L764.837 512.289V518.852C762.404 518.597 761.323 517.305 761.037 515.698L761.007 515.533H757.898L757.913 515.743C758.154 519.168 761.022 521.3 764.837 521.586V524.109ZM761.533 506.281V506.251C761.533 504.885 762.674 503.608 764.837 503.338V509.225C762.419 508.654 761.533 507.663 761.533 506.281ZM766.564 512.694C769.388 513.355 770.184 514.271 770.184 515.788V515.803C770.184 517.41 769.133 518.672 766.534 518.882V512.679L766.564 512.694ZM784.842 522.292C790.009 522.292 793.118 517.981 793.118 511.102V511.072C793.118 504.194 790.009 499.898 784.842 499.898C779.661 499.898 776.567 504.194 776.567 511.072V511.102C776.567 517.981 779.661 522.292 784.842 522.292ZM784.842 519.483C781.748 519.483 779.961 516.299 779.961 511.102V511.072C779.961 505.876 781.748 502.722 784.842 502.722C787.921 502.722 789.723 505.876 789.723 511.072V511.102C789.723 516.299 787.921 519.483 784.842 519.483ZM797.233 522.156C798.329 522.156 799.2 521.285 799.2 520.189C799.2 519.078 798.329 518.221 797.233 518.221C796.121 518.221 795.25 519.078 795.25 520.189C795.25 521.285 796.121 522.156 797.233 522.156ZM802.76 521.931H806.289L815.706 503.173V500.259H800.957V503.097H812.387V503.173L802.76 521.931ZM827.03 521.931H830.259V517.621H833.248V514.797H830.259V500.259H825.393L816.187 514.692V517.621H827.03V521.931ZM819.311 514.842V514.752L826.97 502.917H827.06V514.842H819.311Z" fill="black"/>
<rect opacity="0.2" x="137.655" y="479.749" width="37.3498" height="61.5172" rx="8.78818" fill="#E64C3C"/>
<g filter="url(#filter0_d_1_105)">
<rect x="44" y="194" width="884" height="150" rx="26.3645" fill="white" shape-rendering="crispEdges"/>
<rect opacity="0.2" x="137.768" y="238" width="109" height="62" rx="8.78818" fill="#E64C3C"/>
<path d="M167.763 279.182H170.93V275.616H173.453V272.887H170.93V260.606H166.206L158.495 272.784V275.616H167.763V279.182ZM161.481 272.964V272.874L167.738 263.116H167.815V272.964H161.481ZM178.798 279.388C179.84 279.388 180.652 278.564 180.652 277.522C180.652 276.492 179.84 275.668 178.798 275.668C177.755 275.668 176.931 276.492 176.931 277.522C176.931 278.564 177.755 279.388 178.798 279.388ZM184.773 279.182H197.826V276.466H189.163V276.324L193.256 272.437C196.526 269.296 197.543 267.815 197.543 265.627V265.601C197.543 262.537 194.943 260.284 191.222 260.284C187.451 260.284 184.593 262.717 184.593 266.116V266.206H187.708V266.116C187.747 264.326 189.188 262.949 191.248 262.949C193.038 262.949 194.286 264.133 194.299 265.794V265.82C194.299 267.197 193.771 268.137 191.338 270.519L184.773 276.917V279.182ZM205.72 270.029C208.269 270.029 209.813 268.188 209.813 265.24V265.228C209.813 262.28 208.269 260.439 205.72 260.439C203.158 260.439 201.6 262.28 201.6 265.228V265.24C201.6 268.188 203.158 270.029 205.72 270.029ZM207.239 279.182L219.031 260.606H216.456L204.638 279.182H207.239ZM205.72 268.098C204.6 268.098 203.969 267.068 203.969 265.24V265.228C203.969 263.4 204.6 262.37 205.72 262.37C206.827 262.37 207.445 263.4 207.445 265.228V265.24C207.445 267.068 206.827 268.098 205.72 268.098ZM217.962 279.35C220.511 279.35 222.069 277.509 222.069 274.548V274.535C222.069 271.6 220.511 269.759 217.962 269.759C215.413 269.759 213.856 271.6 213.856 274.535V274.548C213.856 277.509 215.413 279.35 217.962 279.35ZM217.962 277.419C216.842 277.419 216.211 276.389 216.211 274.561V274.548C216.211 272.72 216.842 271.69 217.962 271.69C219.069 271.69 219.7 272.72 219.7 274.548V274.561C219.7 276.389 219.069 277.419 217.962 277.419Z" fill="#ED274B"/>
<path d="M275.736 279.182H278.375V265.498H279.714L276.702 261.121L284.065 279.182H286.189L293.566 261.121L290.54 265.498H291.879V279.182H294.518V260.606H291.171L285.172 275.423H285.082L279.083 260.606H275.736V279.182ZM297.814 279.182H300.607V265.614H297.814V279.182ZM299.204 263.49C299.668 263.49 300.054 263.331 300.363 263.013C300.68 262.696 300.839 262.318 300.839 261.881C300.839 261.426 300.68 261.044 300.363 260.735C300.054 260.417 299.668 260.258 299.204 260.258C298.758 260.258 298.372 260.417 298.046 260.735C297.728 261.044 297.569 261.426 297.569 261.881C297.569 262.318 297.728 262.696 298.046 263.013C298.372 263.331 298.758 263.49 299.204 263.49ZM302.551 279.182H305.576L308.589 274.2H308.653L311.653 279.182H314.729L310.314 272.308L314.781 265.614H311.691L308.782 270.506H308.705L305.757 265.614H302.616L307.044 272.411L302.551 279.182ZM322.067 279.453C322.891 279.453 323.638 279.341 324.307 279.118C324.977 278.895 325.56 278.59 326.058 278.204C326.556 277.809 326.955 277.367 327.255 276.878C327.564 276.389 327.774 275.882 327.886 275.359L327.912 275.217H325.247L325.221 275.32C325.11 275.655 324.912 275.964 324.629 276.247C324.354 276.522 324.007 276.745 323.586 276.917C323.166 277.08 322.676 277.161 322.119 277.161C321.372 277.161 320.72 276.998 320.162 276.672C319.613 276.337 319.188 275.857 318.887 275.23C318.596 274.604 318.45 273.853 318.45 272.977V271.896C318.45 270.969 318.6 270.188 318.9 269.553C319.201 268.918 319.613 268.437 320.136 268.111C320.668 267.785 321.265 267.622 321.926 267.622C322.595 267.622 323.183 267.781 323.689 268.098C324.204 268.407 324.607 268.879 324.899 269.514C325.191 270.141 325.337 270.935 325.337 271.896V272.964L326.702 271.136H317.047V273.106H328.066V272.153C328.066 270.797 327.817 269.609 327.319 268.588C326.822 267.558 326.114 266.76 325.195 266.193C324.277 265.627 323.183 265.343 321.913 265.343C320.643 265.343 319.54 265.64 318.604 266.232C317.669 266.815 316.944 267.639 316.429 268.703C315.914 269.768 315.656 271.008 315.656 272.424V272.437C315.656 273.861 315.909 275.101 316.416 276.157C316.931 277.204 317.669 278.015 318.63 278.59C319.591 279.165 320.737 279.453 322.067 279.453ZM330.293 279.182H333.087V271.098C333.087 270.42 333.207 269.845 333.447 269.373C333.687 268.892 334.026 268.527 334.464 268.279C334.91 268.021 335.434 267.892 336.035 267.892C336.309 267.892 336.558 267.91 336.781 267.944C337.013 267.97 337.189 268.004 337.309 268.047V265.459C337.206 265.434 337.065 265.408 336.884 265.382C336.713 265.356 336.528 265.343 336.331 265.343C335.541 265.343 334.868 265.575 334.31 266.039C333.76 266.493 333.379 267.12 333.164 267.918H333.087V265.614H330.293V279.182Z" fill="black"/>
<line opacity="0.1" x1="347.872" y1="268.584" x2="728.345" y2="268.584" stroke="#93A9C3" stroke-width="2.19704" stroke-linecap="round" stroke-dasharray="10.99 10.99"/>
<path d="M747.498 282.36H749.195V279.837C753.025 279.581 756.029 277.479 756.029 273.799V273.784C756.029 270.585 753.896 268.948 749.916 268.032L749.195 267.867V261.589C751.133 261.829 752.439 262.956 752.649 264.698L752.665 264.833H755.788L755.773 264.593C755.533 261.319 752.905 259.141 749.195 258.855V256.332H747.498V258.855C743.698 259.141 741.01 261.379 741.01 264.713V264.728C741.01 267.777 743.037 269.519 746.882 270.405L747.498 270.54V277.103C745.065 276.848 743.984 275.556 743.698 273.949L743.668 273.784H740.559L740.574 273.994C740.815 277.419 743.683 279.551 747.498 279.837V282.36ZM744.194 264.533V264.503C744.194 263.136 745.335 261.859 747.498 261.589V267.476C745.08 266.906 744.194 265.914 744.194 264.533ZM749.225 270.946C752.049 271.606 752.845 272.523 752.845 274.04V274.055C752.845 275.662 751.793 276.923 749.195 277.133V270.931L749.225 270.946ZM759.588 280.182H774.412V277.344H764.094V277.209L769.02 272.372C772.91 268.528 774.066 266.77 774.066 264.292V264.262C774.066 260.763 771.093 258.15 766.932 258.15C762.697 258.15 759.408 260.958 759.408 264.833V264.923H762.592V264.833C762.622 262.64 764.439 260.928 766.977 260.928C769.17 260.928 770.732 262.4 770.747 264.458V264.488C770.747 266.17 770.101 267.311 767.218 270.195L759.588 277.869V280.182ZM782.882 280.182H786.172V258.51H782.852L777.145 262.565V265.749L782.807 261.844H782.882V280.182ZM792.6 280.408C793.696 280.408 794.567 279.536 794.567 278.44C794.567 277.329 793.696 276.473 792.6 276.473C791.488 276.473 790.617 277.329 790.617 278.44C790.617 279.536 791.488 280.408 792.6 280.408ZM808.159 280.182H811.388V275.872H814.377V273.048H811.388V258.51H806.522L797.316 272.943V275.872H808.159V280.182ZM800.44 273.093V273.003L808.099 261.168H808.189V273.093H800.44ZM824.74 280.543C829.546 280.543 832.925 277.974 832.925 274.31V274.28C832.925 271.546 830.973 269.384 828.149 268.768V268.693C830.567 268.002 832.144 266.2 832.144 263.902V263.872C832.144 260.568 829.05 258.15 824.74 258.15C820.43 258.15 817.351 260.568 817.351 263.872V263.902C817.351 266.2 818.928 268.002 821.346 268.693V268.768C818.522 269.384 816.555 271.546 816.555 274.28V274.31C816.555 277.974 819.949 280.543 824.74 280.543ZM824.74 267.566C822.337 267.566 820.685 266.17 820.685 264.202V264.172C820.685 262.19 822.337 260.808 824.74 260.808C827.143 260.808 828.81 262.19 828.81 264.172V264.202C828.81 266.17 827.158 267.566 824.74 267.566ZM824.74 277.854C821.977 277.854 820.009 276.277 820.009 274.085V274.055C820.009 271.847 821.962 270.255 824.74 270.255C827.519 270.255 829.471 271.847 829.471 274.055V274.085C829.471 276.277 827.503 277.854 824.74 277.854Z" fill="black"/>
</g>
<defs>
<filter id="filter0_d_1_105" x="0.0591125" y="158.847" width="971.882" height="237.882" filterUnits="userSpaceOnUse" color-interpolation-filters="sRGB">
<feFlood flood-opacity="0" result="BackgroundImageFix"/>
<feColorMatrix in="SourceAlpha" type="matrix" values="0 0 0 0 0 0 0 0 0 0 0 0 0 0 0 0 0 0 127 0" result="hardAlpha"/>
<feOffset dy="8.78818"/>
<feGaussianBlur stdDeviation="21.9704"/>
<feComposite in2="hardAlpha" operator="out"/>
<feColorMatrix type="matrix" values="0 0 0 0 0 0 0 0 0 0 0 0 0 0 0 0 0 0 0.05 0"/>
<feBlend mode="normal" in2="BackgroundImageFix" result="effect1_dropShadow_1_105"/>
<feBlend mode="normal" in="SourceGraphic" in2="effect1_dropShadow_1_105" result="shape"/>
</filter>
<clipPath id="clip0_1_105">
<rect width="39.5468" height="39.5468" fill="white" transform="translate(137.655 44.734)"/>
</clipPath>
</defs>
</svg>
